<svg xmlns="http://www.w3.org/2000/svg" xmlns:xlink="http://www.w3.org/1999/xlink" width="3000" zoomAndPan="magnify" viewBox="0 0 2250 2250.000011" height="3000" preserveAspectRatio="xMidYMid meet" version="1.0"><defs><clipPath id="6d6ecdabc7"><path d="M 1188.972656 1045.03125 L 1224.335938 1045.03125 L 1224.335938 1080.394531 L 1188.972656 1080.394531 Z M 1188.972656 1045.03125 " clip-rule="nonzero"/></clipPath><clipPath id="b9c74d787e"><path d="M 1206.65625 1045.03125 C 1196.890625 1045.03125 1188.972656 1052.945312 1188.972656 1062.710938 C 1188.972656 1072.476562 1196.890625 1080.394531 1206.65625 1080.394531 C 1216.421875 1080.394531 1224.335938 1072.476562 1224.335938 1062.710938 C 1224.335938 1052.945312 1216.421875 1045.03125 1206.65625 1045.03125 Z M 1206.65625 1045.03125 " clip-rule="nonzero"/></clipPath></defs><g clip-path="url(#6d6ecdabc7)"><g clip-path="url(#b9c74d787e)"><path fill="#ffffff" d="M 1188.972656 1045.03125 L 1224.335938 1045.03125 L 1224.335938 1080.394531 L 1188.972656 1080.394531 Z M 1188.972656 1045.03125 " fill-opacity="1" fill-rule="nonzero"/></g></g><path fill="#dfeef7" d="M 2225.289062 1690.023438 C 2249.234375 1865.910156 2170.894531 2035.773438 2031.984375 2133.921875 C 2014.832031 2146.046875 1990.859375 2140.394531 1980.203125 2122.296875 L 1977.417969 2117.542969 C 1967.832031 2101.214844 1972.5625 2080.480469 1987.996094 2069.527344 C 2102.859375 1988.007812 2167.734375 1847.34375 2148.242188 1701.449219 C 2145.726562 1682.730469 2157.75 1665.183594 2176.195312 1661.101562 L 2181.5 1659.929688 C 2202.035156 1655.402344 2222.449219 1669.191406 2225.289062 1690.023438 " fill-opacity="1" fill-rule="nonzero"/><path fill="#dfeef7" d="M 2072.761719 1726.144531 C 2081.949219 1832.355469 2035.742188 1933.667969 1955.085938 1997.015625 C 1937.585938 2010.757812 1912.070312 2006.527344 1900.765625 1987.359375 L 1898.128906 1982.878906 C 1888.695312 1966.871094 1893.25 1946.835938 1907.8125 1935.285156 C 1967.855469 1887.566406 2002.113281 1811.945312 1995.140625 1732.492188 C 1993.574219 1714.644531 2006.269531 1698.636719 2023.746094 1694.78125 L 2028.699219 1693.683594 C 2050.15625 1688.953125 2070.894531 1704.238281 2072.761719 1726.144531 " fill-opacity="1" fill-rule="nonzero"/><path fill="#dfeef7" d="M 5.773438 440.726562 C 52.425781 269.445312 190.910156 143.691406 357.128906 107.597656 C 377.667969 103.140625 397.53125 117.703125 400.246094 138.511719 L 400.96875 143.988281 C 403.433594 162.757812 390.960938 179.984375 372.488281 184.039062 C 234.898438 214.234375 120.210938 318.382812 81.175781 460.316406 C 76.171875 478.511719 58.25 489.960938 39.679688 486.527344 L 34.324219 485.53125 C 13.664062 481.671875 0.246094 461.011719 5.773438 440.726562 " fill-opacity="1" fill-rule="nonzero"/><path fill="#dfeef7" d="M 160.265625 467.035156 C 193.351562 365.675781 275.449219 290.476562 374.429688 263.667969 C 395.914062 257.84375 417.746094 271.710938 420.683594 293.765625 L 421.355469 298.941406 C 423.769531 317.335938 411.746094 333.988281 393.847656 338.941406 C 319.910156 359.429688 258.847656 415.660156 234.226562 491.53125 C 228.699219 508.554688 210.75 518.339844 193.152344 515.054688 L 188.171875 514.132812 C 166.5625 510.125 153.46875 487.945312 160.265625 467.035156 " fill-opacity="1" fill-rule="nonzero"/><path fill="#fec108" d="M 2009.777344 890.074219 L 1875.199219 1732.515625 C 1858.496094 1837.113281 1760.140625 1908.425781 1655.484375 1891.699219 L 351.601562 1683.453125 C 246.921875 1666.75 175.675781 1568.328125 192.402344 1463.757812 L 326.980469 621.292969 C 333.902344 577.929688 354.839844 540.34375 384.460938 512.363281 C 426.285156 472.710938 485.410156 452.300781 546.699219 462.109375 L 1850.582031 670.351562 C 1911.871094 680.136719 1961.707031 717.945312 1989.09375 768.652344 C 2008.535156 804.445312 2016.722656 846.6875 2009.777344 890.074219 " fill-opacity="1" fill-rule="nonzero"/><path fill="#feb60a" d="M 384.460938 512.363281 L 1092.851562 1433.960938 L 1989.09375 768.652344 Z M 384.460938 512.363281 " fill-opacity="1" fill-rule="nonzero"/><path fill="#fdac01" d="M 213.089844 1585.15625 L 1120.433594 1055.804688 L 1817.71875 1841.441406 C 1775.898438 1881.09375 1716.773438 1901.507812 1655.484375 1891.699219 L 351.601562 1683.453125 C 290.289062 1673.671875 240.476562 1635.859375 213.089844 1585.15625 " fill-opacity="1" fill-rule="nonzero"/><path fill="#ffd54f" d="M 1989.09375 768.652344 L 1081.75 1298.003906 L 384.460938 512.363281 C 426.285156 472.710938 485.410156 452.300781 546.699219 462.109375 L 1850.582031 670.351562 C 1911.871094 680.136719 1961.707031 717.945312 1989.09375 768.652344 " fill-opacity="1" fill-rule="nonzero"/><path fill="#f5554a" d="M 2247.542969 630.179688 C 2247.542969 423.800781 2080.230469 256.5 1873.832031 256.5 C 1667.433594 256.5 1500.09375 423.800781 1500.09375 630.179688 C 1500.09375 836.558594 1667.433594 1003.878906 1873.832031 1003.878906 C 2080.230469 1003.878906 2247.542969 836.558594 2247.542969 630.179688 " fill-opacity="1" fill-rule="nonzero"/><path fill="#ffffff" d="M 1853.09375 565.261719 C 1847.144531 570.660156 1840.671875 574.894531 1833.652344 577.953125 C 1826.609375 581.015625 1818.34375 582.558594 1808.785156 582.558594 C 1803.382812 582.558594 1798.402344 581.515625 1793.796875 579.449219 C 1789.191406 577.382812 1785.285156 574.59375 1782.046875 571.085938 C 1778.8125 567.550781 1776.246094 563.566406 1774.355469 559.0625 C 1772.460938 554.554688 1771.515625 549.777344 1771.515625 544.75 C 1771.515625 539.695312 1772.339844 535.339844 1773.957031 531.628906 C 1775.574219 527.945312 1777.816406 524.761719 1780.703125 522.046875 C 1783.566406 519.359375 1786.902344 516.917969 1790.683594 514.753906 C 1794.46875 512.589844 1798.527344 510.347656 1802.859375 508.007812 C 1811.84375 502.058594 1819.910156 496.035156 1827.03125 489.910156 C 1834.152344 483.789062 1840.5 478.0625 1846.074219 472.761719 C 1851.652344 467.433594 1856.503906 462.902344 1860.664062 459.121094 C 1864.796875 455.335938 1868.40625 452.722656 1871.46875 451.28125 C 1873.257812 450.382812 1874.925781 449.613281 1876.472656 448.988281 C 1877.988281 448.367188 1879.558594 447.917969 1881.175781 447.644531 C 1882.820312 447.371094 1884.609375 447.199219 1886.578125 447.097656 C 1888.570312 447 1891.082031 446.972656 1894.144531 446.972656 C 1903.503906 446.972656 1910.949219 448.839844 1916.449219 452.625 C 1921.925781 456.40625 1926.058594 461.3125 1928.847656 467.359375 C 1931.660156 473.382812 1933.402344 480.179688 1934.125 487.746094 C 1934.847656 495.3125 1935.195312 502.980469 1935.195312 510.695312 L 1935.195312 761.359375 C 1935.195312 769.273438 1934.847656 777.066406 1934.125 784.730469 C 1933.402344 792.375 1931.660156 799.167969 1928.847656 805.117188 C 1926.058594 811.066406 1921.925781 815.871094 1916.449219 819.554688 C 1910.949219 823.265625 1903.503906 825.105469 1894.144531 825.105469 C 1884.609375 825.105469 1877.144531 823.265625 1871.742188 819.554688 C 1866.339844 815.871094 1862.230469 811.066406 1859.441406 805.117188 C 1856.628906 799.167969 1854.886719 792.375 1854.164062 784.730469 C 1853.445312 777.066406 1853.09375 769.273438 1853.09375 761.359375 L 1853.09375 565.261719 " fill-opacity="1" fill-rule="nonzero"/></svg>